<?xml version="1.0" encoding="UTF-8" standalone="no"?>
<!DOCTYPE svg PUBLIC "-//W3C//DTD SVG 1.1//EN" "http://www.w3.org/Graphics/SVG/1.1/DTD/svg11.dtd">
<svg width="100%" height="100%" viewBox="0 0 2953 2953" version="1.1" xmlns="http://www.w3.org/2000/svg" xmlns:xlink="http://www.w3.org/1999/xlink" xml:space="preserve" xmlns:serif="http://www.serif.com/" style="fill-rule:evenodd;clip-rule:evenodd;stroke-linejoin:round;stroke-miterlimit:1.5;">
    <g id="MXP" transform="matrix(1,0,0,1,295.276,295.276)">
        <g transform="matrix(0.5,0,0,0.5,442.913,442.913)">
            <rect x="885.827" y="885.827" width="1181.1" height="1181.1" style="fill:rgb(235,235,235);stroke:black;stroke-width:16.67px;"/>
        </g>
        <path d="M1181.1,885.827L1181.1,590.551" style="fill:none;stroke:black;stroke-width:8.33px;"/>
        <path d="M885.827,1181.1L590.551,1181.1" style="fill:none;stroke:black;stroke-width:8.33px;"/>
        <g transform="matrix(150,0,0,150,1370.51,1086.31)">
        </g>
        <text x="991.698px" y="1086.31px" style="font-family:'SFProDisplay-Regular', 'SF Pro Display';font-size:150px;">por<tspan x="1203.59px " y="1086.31px ">t</tspan> 0</text>
        <g transform="matrix(150,0,0,150,1358.28,1381.58)">
        </g>
        <text x="1003.93px" y="1381.58px" style="font-family:'SFProDisplay-Regular', 'SF Pro Display';font-size:150px;">por<tspan x="1215.82px " y="1381.58px ">t</tspan> 1</text>
        <g transform="matrix(1,0,0,1,1.13687e-13,59.0551)">
            <g transform="matrix(150,0,0,150,1309.2,761.506)">
            </g>
            <text x="1230.17px" y="761.506px" style="font-family:'SFProDisplay-Regular', 'SF Pro Display';font-size:150px;">n</text>
        </g>
        <g transform="matrix(1,0,0,1,-177.165,885.827)">
            <g transform="matrix(150,0,0,150,1304.58,731.978)">
            </g>
            <text x="1234.79px" y="731.978px" style="font-family:'SFProDisplay-Regular', 'SF Pro Display';font-size:150px;">s</text>
        </g>
        <g transform="matrix(1,0,0,1,295.276,590.551)">
            <g transform="matrix(150,0,0,150,1324.27,731.978)">
            </g>
            <text x="1247.43px" y="731.978px" style="font-family:'SFProDisplay-Regular', 'SF Pro Display';font-size:150px;">e</text>
        </g>
        <g transform="matrix(1,0,0,1,-531.496,413.386)">
            <g transform="matrix(150,0,0,150,1352.86,731.978)">
            </g>
            <text x="1245.56px" y="731.978px" style="font-family:'SFProDisplay-Regular', 'SF Pro Display';font-size:150px;">w</text>
        </g>
        <g transform="matrix(1,0,0,1,147.638,147.638)">
            <path d="M1033.46,1624.02L1033.46,1328.74" style="fill:none;stroke:black;stroke-width:8.33px;"/>
        </g>
        <g transform="matrix(1,0,0,1,147.638,118.11)">
            <path d="M1328.74,1062.99L1624.02,1062.99" style="fill:none;stroke:black;stroke-width:8.33px;"/>
        </g>
    </g>
    <g transform="matrix(-1,0,0,-1,2657.48,2657.48)">
        <g opacity="0.66">
            <g transform="matrix(0.5,0,0,0.5,1328.74,442.913)">
                <rect x="885.827" y="885.827" width="1181.1" height="1181.1" style="fill:rgb(235,235,235);stroke:black;stroke-width:9.17px;stroke-linecap:round;stroke-dasharray:18.33,36.67,0,0,0,0;"/>
            </g>
            <g transform="matrix(-0.5,0,0,-0.5,1033.46,1919.29)">
                <rect x="885.827" y="885.827" width="1181.1" height="1181.1" style="fill:rgb(235,235,235);stroke:black;stroke-width:9.17px;stroke-linecap:round;stroke-dasharray:18.33,36.67,0,0,0,0;"/>
            </g>
            <g transform="matrix(-0.5,0,0,-0.5,1919.29,1033.46)">
                <rect x="885.827" y="885.827" width="1181.1" height="1181.1" style="fill:rgb(235,235,235);stroke:black;stroke-width:9.17px;stroke-linecap:round;stroke-dasharray:18.33,36.67,0,0,0,0;"/>
            </g>
            <g transform="matrix(0.5,0,0,0.5,442.913,1328.74)">
                <rect x="885.827" y="885.827" width="1181.1" height="1181.1" style="fill:rgb(235,235,235);stroke:black;stroke-width:9.17px;stroke-linecap:round;stroke-dasharray:18.33,36.67,0,0,0,0;"/>
            </g>
        </g>
    </g>
    <g transform="matrix(-1,0,0,-1,2657.48,2657.48)">
        <g opacity="0.25">
            <g transform="matrix(0.5,0,0,0.5,1328.74,1328.74)">
                <rect x="885.827" y="885.827" width="1181.1" height="1181.1" style="fill:rgb(235,235,235);stroke:black;stroke-width:9.17px;stroke-linecap:round;stroke-dasharray:18.33,36.67,0,0,0,0;"/>
            </g>
            <g transform="matrix(-0.5,0,0,-0.5,1033.46,1033.46)">
                <rect x="885.827" y="885.827" width="1181.1" height="1181.1" style="fill:rgb(235,235,235);stroke:black;stroke-width:9.17px;stroke-linecap:round;stroke-dasharray:18.33,36.67,0,0,0,0;"/>
            </g>
            <g transform="matrix(-0.5,0,0,-0.5,2805.12,1033.46)">
                <rect x="885.827" y="885.827" width="1181.1" height="1181.1" style="fill:rgb(235,235,235);stroke:black;stroke-width:9.17px;stroke-linecap:round;stroke-dasharray:18.33,36.67,0,0,0,0;"/>
            </g>
            <g transform="matrix(0.5,0,0,0.5,-442.913,1328.74)">
                <rect x="885.827" y="885.827" width="1181.1" height="1181.1" style="fill:rgb(235,235,235);stroke:black;stroke-width:9.17px;stroke-linecap:round;stroke-dasharray:18.33,36.67,0,0,0,0;"/>
            </g>
        </g>
    </g>
</svg>
